<?xml version="1.0" standalone="no"?>
<!DOCTYPE svg PUBLIC "-//W3C//DTD SVG 20010904//EN"
 "http://www.w3.org/TR/2001/REC-SVG-20010904/DTD/svg10.dtd">
<svg version="1.0" xmlns="http://www.w3.org/2000/svg"
 width="128.000000pt" height="128.000000pt" viewBox="0 0 128.000000 128.000000"
 preserveAspectRatio="xMidYMid meet">

<g transform="translate(0.000000,128.000000) scale(0.100000,-0.100000)"
fill="#000000" stroke="none">
<path d="M1 968 c0 -177 5 -335 11 -363 5 -27 12 -72 13 -100 2 -27 6 -58 10
-67 5 -14 2 -18 -14 -18 -21 0 -21 -3 -21 -191 l0 -191 23 15 c12 8 34 15 49
15 31 0 83 34 100 65 11 22 12 22 24 -8 9 -19 13 -24 14 -12 0 11 5 15 11 11
8 -5 8 -1 0 14 -16 30 -14 55 4 48 18 -6 19 -1 5 25 -6 10 -8 19 -6 19 3 0 13
-14 22 -31 8 -17 11 -28 5 -25 -6 4 -11 0 -11 -9 0 -9 4 -13 10 -10 5 3 10 -1
10 -9 0 -8 5 -18 12 -22 8 -5 9 -2 5 10 -5 14 -3 17 8 12 16 -6 21 9 6 18 -11
7 -2 46 10 46 5 0 9 -9 9 -21 0 -11 4 -17 10 -14 5 3 7 0 5 -8 -3 -7 3 -22 15
-32 15 -14 20 -15 20 -4 1 10 4 9 11 -3 5 -10 18 -18 28 -18 10 0 24 -6 30
-14 13 -16 84 -19 127 -6 18 5 22 9 10 9 -11 1 -16 6 -13 15 3 8 -2 20 -11 28
-11 9 -14 9 -8 1 5 -9 2 -11 -8 -7 -9 3 -16 16 -17 28 0 21 0 21 -9 -2 -10
-24 -10 -24 -70 9 -8 5 -29 16 -47 24 -21 11 -40 34 -57 71 -14 30 -26 56 -26
59 0 2 -5 16 -12 32 -6 15 -13 35 -14 43 -2 8 -6 26 -10 40 l-7 25 26 -27 c18
-19 32 -26 44 -21 26 9 30 19 25 54 -3 22 -7 27 -13 18 -6 -10 -9 -5 -9 16 0
21 -3 26 -9 16 -5 -8 -9 15 -9 63 0 84 7 91 51 55 15 -11 32 -19 39 -18 19 4
81 -12 95 -23 9 -7 23 -6 43 2 17 7 33 10 36 7 3 -2 -2 -28 -12 -56 -13 -41
-14 -56 -4 -83 6 -18 14 -44 16 -58 7 -34 9 -34 43 -17 26 13 32 13 42 1 18
-22 29 -16 29 15 0 19 -11 42 -29 61 -27 30 -28 34 -15 59 17 32 18 53 3 68
-6 6 -11 45 -12 86 l0 76 -41 15 c-23 9 -48 16 -56 16 -8 0 -33 5 -54 11 -29
8 -36 13 -25 19 7 5 17 7 20 7 13 -4 49 36 49 53 0 10 -9 20 -20 23 -22 6 -26
28 -10 58 8 15 20 19 48 17 20 -1 62 4 94 11 113 27 226 -36 249 -139 5 -21
10 -129 11 -241 3 -264 -15 -339 -108 -439 -29 -32 -54 -103 -54 -155 0 -13
41 -15 270 -15 l270 0 0 640 0 640 -292 0 c-198 0 -288 -4 -278 -10 8 -6 38
-7 68 -4 35 4 52 3 52 -5 0 -6 -9 -11 -19 -11 -39 0 -51 -11 -44 -39 6 -25 5
-25 -14 -8 -31 27 -39 20 -12 -10 l24 -27 -31 25 c-17 13 -30 27 -28 30 2 4
-14 18 -36 33 -37 24 -48 26 -148 26 -100 0 -162 -12 -162 -32 0 -4 -20 -7
-44 -6 -24 0 -50 -3 -57 -7 -11 -6 -11 -5 -3 4 6 7 29 19 50 26 36 13 26 14
-133 15 l-173 0 1 -312z m579 265 c0 -8 -12 -5 -35 8 -19 12 -35 22 -35 23 0
2 16 -2 35 -8 19 -6 35 -16 35 -23z m46 -8 c10 -8 14 -15 8 -15 -5 0 -19 7
-30 15 -10 8 -14 15 -8 15 5 0 19 -7 30 -15z m-116 1 c0 -2 -18 -6 -40 -8 -22
-2 -40 0 -40 4 0 5 18 8 40 8 22 0 40 -2 40 -4z m325 -26 c-3 -5 -12 -10 -18
-10 -7 0 -6 4 3 10 19 12 23 12 15 0z m28 -16 c-4 -10 4 -25 23 -41 16 -13 22
-21 14 -18 -8 4 1 -8 21 -27 20 -18 45 -48 55 -65 10 -18 22 -33 26 -33 4 0 8
-5 8 -10 0 -10 37 -69 51 -80 10 -9 18 -50 8 -44 -6 3 -8 -5 -4 -20 3 -14 7
-37 10 -51 6 -26 -30 -69 -51 -61 -18 7 -23 -41 -7 -64 12 -17 12 -20 -1 -20
-10 0 -16 -9 -17 -22 0 -13 -2 -33 -5 -45 -2 -13 1 -23 7 -23 5 0 7 4 4 10 -3
5 -1 10 4 10 17 0 13 -21 -6 -36 -17 -12 -17 -14 2 -29 19 -16 19 -16 -7 -10
-21 4 -28 2 -28 -10 0 -28 -27 -16 -28 13 0 15 -2 34 -3 42 -1 8 -1 35 -1 59
2 34 5 42 17 37 8 -3 14 -2 13 2 -1 4 4 20 10 35 7 16 12 37 12 47 0 11 9 28
21 39 12 11 18 25 14 32 -5 6 -8 25 -7 41 0 22 -6 32 -29 44 -16 8 -27 19 -25
23 3 4 -10 17 -29 27 -19 10 -35 23 -35 27 0 5 7 4 15 -3 30 -25 35 -4 5 25
-23 22 -30 25 -30 12 0 -9 -4 -17 -10 -17 -13 0 -13 31 0 64 6 16 6 27 0 31
-6 4 -10 14 -10 24 0 10 -10 30 -21 45 -21 26 -21 28 -3 41 24 18 25 18 17 -1z
m-643 -14 c0 -5 -8 -10 -17 -10 -10 0 -27 -7 -37 -15 -10 -8 -23 -12 -27 -9
-5 3 -18 0 -29 -6 -11 -6 -20 -8 -20 -6 0 10 51 39 83 46 45 11 47 11 47 0z
m-90 -54 c0 -3 -4 -8 -10 -11 -5 -3 -10 -1 -10 4 0 6 5 11 10 11 6 0 10 -2 10
-4z m847 -348 c-3 -8 -6 -5 -6 6 -1 11 2 17 5 13 3 -3 4 -12 1 -19z m-517 -27
c-28 -16 -60 -22 -60 -12 0 10 22 18 55 20 16 0 17 -1 5 -8z m80 -65 c0 -3 -4
-8 -10 -11 -5 -3 -10 -1 -10 4 0 6 5 11 10 11 6 0 10 -2 10 -4z m-350 -196
c13 -8 13 -10 -2 -10 -9 0 -20 5 -23 10 -8 13 5 13 25 0z m-30 -22 c0 -6 12
-8 31 -4 25 5 30 3 27 -12 -5 -27 -50 -27 -76 0 -21 23 -21 24 -2 25 11 1 20
-3 20 -9z"/>
<path d="M985 910 c3 -5 11 -10 16 -10 6 0 7 5 4 10 -3 6 -11 10 -16 10 -6 0
-7 -4 -4 -10z"/>
<path d="M770 773 c-36 -7 -59 -31 -66 -69 -8 -44 1 -69 32 -82 30 -14 67 -16
59 -2 -9 15 6 60 21 60 8 0 14 -4 14 -9 0 -5 9 -11 21 -14 18 -5 20 -2 15 16
-3 12 -6 27 -6 33 0 6 -10 16 -22 22 -23 10 -23 11 5 11 31 1 34 8 10 27 -18
13 -37 15 -83 7z"/>
<path d="M715 451 c-6 -11 9 -23 19 -14 9 9 7 23 -3 23 -6 0 -12 -4 -16 -9z"/>
<path d="M585 358 c-11 -7 -27 -12 -35 -13 -41 -5 -70 -35 -34 -35 19 0 104
-49 104 -60 0 -14 64 -6 77 10 19 23 16 28 -17 26 -16 0 -30 4 -30 9 0 6 28
10 65 10 36 0 65 3 65 6 0 11 -48 39 -65 39 -9 0 -14 3 -12 8 8 12 -96 12
-118 0z"/>
<path d="M556 243 c-6 -14 -5 -15 5 -6 7 7 10 15 7 18 -3 3 -9 -2 -12 -12z"/>
<path d="M511 224 c0 -11 3 -14 6 -6 3 7 2 16 -1 19 -3 4 -6 -2 -5 -13z"/>
</g>
</svg>
